<svg width="184" height="24" viewBox="0 0 184 24" fill="none" xmlns="http://www.w3.org/2000/svg">
<path d="M4 20C10.2344 10.9799 11.5582 8.41216 13.2231 8.81421C14.105 9.02716 14.7309 10.0021 15.3226 11.1085C16.8113 13.8923 19.3779 12.887 20.4735 9.92627L21.8205 6.28616C22.1065 5.51317 22.8436 5 23.6678 5V5C24.3894 5 25.0532 5.39453 25.398 6.02834L28.9193 12.5L33 20" stroke="url(#paint0_radial_48_38)" stroke-width="8" stroke-linecap="round"/>
<path d="M42.6521 6.192C42.0601 6.192 41.7561 5.792 41.7401 4.992C41.7401 4.176 42.0441 3.768 42.6521 3.768H46.8281V2.136C46.8281 1.368 47.3001 0.983999 48.2441 0.983999C49.2041 0.983999 49.6841 1.368 49.6841 2.136V3.768H53.6921C54.3161 3.768 54.6201 4.176 54.6041 4.992C54.6041 5.792 54.3001 6.192 53.6921 6.192H50.8601C51.3241 6.432 51.7561 6.744 52.1561 7.128C53.2441 8.136 53.7881 9.336 53.7881 10.728C53.7881 12.04 53.3081 13.184 52.3481 14.16H62.4761C63.0521 14.16 63.4441 14.312 63.6521 14.616C63.8761 14.904 63.9881 15.232 63.9881 15.6V21.024C63.9881 21.392 63.8761 21.72 63.6521 22.008C63.4441 22.312 63.0521 22.464 62.4761 22.464H51.2441C50.6681 22.464 50.2681 22.312 50.0441 22.008C49.8361 21.72 49.7321 21.392 49.7321 21.024V15.696C49.2521 15.808 48.7561 15.864 48.2441 15.864C46.6921 15.864 45.3721 15.36 44.2841 14.352C43.1961 13.344 42.6521 12.136 42.6521 10.728C42.6521 9.304 43.1961 8.096 44.2841 7.104C44.6841 6.736 45.1161 6.432 45.5801 6.192H42.6521ZM59.6201 12.456C59.6201 13.224 59.1401 13.608 58.1801 13.608C57.2361 13.608 56.7641 13.224 56.7641 12.456V2.376C56.7641 1.608 57.2361 1.224 58.1801 1.224C59.1401 1.224 59.6201 1.608 59.6201 2.376V12.456ZM61.1321 16.824C61.1321 16.76 61.1241 16.704 61.1081 16.656C61.0921 16.608 61.0281 16.584 60.9161 16.584H52.8041C52.6921 16.584 52.6281 16.608 52.6121 16.656C52.5961 16.704 52.5881 16.76 52.5881 16.824V19.8C52.5881 19.864 52.5961 19.92 52.6121 19.968C52.6281 20.016 52.6921 20.04 52.8041 20.04H60.9161C61.0281 20.04 61.0921 20.016 61.1081 19.968C61.1241 19.92 61.1321 19.864 61.1321 19.8V16.824ZM50.9561 10.584C50.9561 9.768 50.6841 9.08 50.1401 8.52C49.6121 7.96 48.9801 7.68 48.2441 7.68C47.5081 7.68 46.8681 7.96 46.3241 8.52C45.7961 9.08 45.5321 9.768 45.5321 10.584C45.5321 11.4 45.7961 12.088 46.3241 12.648C46.8681 13.208 47.5081 13.488 48.2441 13.488C48.9801 13.488 49.6121 13.208 50.1401 12.648C50.6841 12.088 50.9561 11.4 50.9561 10.584ZM64.1081 7.872C64.1081 8.384 63.9241 8.824 63.5561 9.192C63.2041 9.544 62.7721 9.72 62.2601 9.72C61.7481 9.72 61.3081 9.544 60.9401 9.192C60.5881 8.824 60.4121 8.384 60.4121 7.872C60.4121 7.36 60.5881 6.928 60.9401 6.576C61.3081 6.208 61.7481 6.024 62.2601 6.024C62.7721 6.024 63.2041 6.208 63.5561 6.576C63.9241 6.928 64.1081 7.36 64.1081 7.872ZM83.0921 8.472C83.7001 8.968 83.6841 9.536 83.0441 10.176C82.4041 10.8 81.8121 10.888 81.2681 10.44L74.9321 4.296L68.5961 10.44C68.0521 10.888 67.4601 10.8 66.8201 10.176C66.1961 9.536 66.1801 8.968 66.7721 8.472L73.7081 1.704C74.1081 1.368 74.5161 1.304 74.9321 1.512C75.3321 1.304 75.7401 1.368 76.1561 1.704L83.0921 8.472ZM77.1641 20.472C77.1641 21.24 76.6841 21.624 75.7241 21.624C74.7801 21.624 74.3081 21.24 74.3081 20.472V14.928C74.3081 14.864 74.3001 14.808 74.2841 14.76C74.2681 14.712 74.2041 14.688 74.0921 14.688H66.4361C65.8441 14.688 65.5401 14.288 65.5241 13.488C65.5241 12.672 65.8281 12.264 66.4361 12.264H75.6521C76.2281 12.264 76.6201 12.416 76.8281 12.72C77.0521 13.008 77.1641 13.336 77.1641 13.704V20.472ZM96.9438 8.496C96.9438 8.864 96.8318 9.2 96.6078 9.504C96.3998 9.792 96.0078 9.936 95.4318 9.936H88.8078C88.6958 9.936 88.6318 9.96 88.6158 10.008C88.5998 10.056 88.5918 10.112 88.5918 10.176V13.392C88.5918 13.456 88.5998 13.512 88.6158 13.56C88.6318 13.608 88.6958 13.632 88.8078 13.632H94.0398C94.6478 13.632 94.9438 14.04 94.9278 14.856C94.9278 15.656 94.6318 16.056 94.0398 16.056H87.2478C86.6718 16.056 86.2718 15.912 86.0478 15.624C85.8398 15.32 85.7358 14.984 85.7358 14.616V8.952C85.7358 8.584 85.8398 8.256 86.0478 7.968C86.2718 7.664 86.6718 7.512 87.2478 7.512H93.8718C93.9838 7.512 94.0478 7.488 94.0638 7.44C94.0798 7.392 94.0878 7.336 94.0878 7.272V4.416C94.0878 4.352 94.0798 4.296 94.0638 4.248C94.0478 4.2 93.9838 4.176 93.8718 4.176H86.6478C86.0558 4.176 85.7518 3.776 85.7358 2.976C85.7358 2.16 86.0398 1.752 86.6478 1.752H95.4318C96.0078 1.752 96.3998 1.904 96.6078 2.208C96.8318 2.496 96.9438 2.824 96.9438 3.192V8.496ZM106.952 6.624C106.952 7.136 106.768 7.576 106.4 7.944C106.048 8.296 105.616 8.472 105.104 8.472C104.592 8.472 104.152 8.296 103.784 7.944C103.432 7.576 103.256 7.136 103.256 6.624C103.256 6.112 103.432 5.68 103.784 5.328C104.152 4.96 104.592 4.776 105.104 4.776C105.616 4.776 106.048 4.96 106.4 5.328C106.768 5.68 106.952 6.112 106.952 6.624ZM102.464 11.76C102.464 12.528 101.984 12.912 101.024 12.912C100.08 12.912 99.6078 12.528 99.6078 11.76V2.376C99.6078 1.608 100.08 1.224 101.024 1.224C101.984 1.224 102.464 1.608 102.464 2.376V11.76ZM106.28 18.288C106.28 19.664 105.728 20.84 104.624 21.816C103.52 22.808 102.176 23.304 100.592 23.304C98.9918 23.304 97.6318 22.816 96.5118 21.84C95.4078 20.864 94.8558 19.68 94.8558 18.288C94.8558 16.896 95.4078 15.712 96.5118 14.736C97.6318 13.76 98.9918 13.272 100.592 13.272C102.176 13.272 103.52 13.768 104.624 14.76C105.728 15.736 106.28 16.912 106.28 18.288ZM103.424 18.288C103.424 17.568 103.144 16.96 102.584 16.464C102.04 15.968 101.376 15.72 100.592 15.72C99.8078 15.72 99.1358 15.968 98.5758 16.464C98.0318 16.96 97.7598 17.568 97.7598 18.288C97.7598 19.008 98.0318 19.616 98.5758 20.112C99.1358 20.608 99.8078 20.856 100.592 20.856C101.376 20.856 102.04 20.608 102.584 20.112C103.144 19.616 103.424 19.008 103.424 18.288ZM121.544 12.168C121.8 12.904 121.48 13.424 120.584 13.728C119.688 14.032 119.112 13.816 118.856 13.08L115.76 3.696L111.152 17.544C110.896 18.28 110.32 18.496 109.424 18.192C108.528 17.888 108.208 17.368 108.464 16.632L113.168 2.472C113.424 1.736 114 1.528 114.896 1.848C115.296 1.992 115.584 2.176 115.76 2.4C115.936 2.176 116.224 1.992 116.624 1.848C117.52 1.528 118.096 1.736 118.352 2.472L121.544 12.168ZM118.112 22.176C117.536 22.176 117.136 22.024 116.912 21.72C116.704 21.432 116.6 21.104 116.6 20.736V15.048C116.6 14.28 117.072 13.896 118.016 13.896C118.976 13.896 119.456 14.28 119.456 15.048V19.512C119.456 19.576 119.464 19.632 119.48 19.68C119.496 19.728 119.56 19.752 119.672 19.752H130.472C131.064 19.752 131.36 20.16 131.36 20.976C131.376 21.776 131.08 22.176 130.472 22.176H118.112ZM126.464 14.808C126.464 15.576 125.984 15.96 125.024 15.96C124.08 15.96 123.608 15.576 123.608 14.808V2.376C123.608 1.608 124.08 1.224 125.024 1.224C125.984 1.224 126.464 1.608 126.464 2.376V14.808ZM130.952 7.872C130.952 8.384 130.768 8.824 130.4 9.192C130.048 9.544 129.616 9.72 129.104 9.72C128.592 9.72 128.152 9.544 127.784 9.192C127.432 8.824 127.256 8.384 127.256 7.872C127.256 7.36 127.432 6.928 127.784 6.576C128.152 6.208 128.592 6.024 129.104 6.024C129.616 6.024 130.048 6.208 130.4 6.576C130.768 6.928 130.952 7.36 130.952 7.872ZM154.832 21.288C154.832 22.056 154.352 22.44 153.392 22.44C152.448 22.44 151.976 22.056 151.976 21.288V16.728C151.976 16.664 151.968 16.608 151.952 16.56C151.936 16.512 151.872 16.488 151.76 16.488H141.44C140.848 16.488 140.544 16.088 140.528 15.288C140.528 14.472 140.832 14.064 141.44 14.064H153.32C153.896 14.064 154.288 14.216 154.496 14.52C154.72 14.808 154.832 15.136 154.832 15.504V21.288ZM145.184 7.704C145.184 9.4 144.6 10.856 143.432 12.072C142.28 13.288 140.872 13.896 139.208 13.896C137.512 13.896 136.08 13.296 134.912 12.096C133.76 10.88 133.184 9.416 133.184 7.704C133.184 5.992 133.76 4.536 134.912 3.336C136.08 2.12 137.512 1.512 139.208 1.512C140.872 1.512 142.28 2.12 143.432 3.336C144.6 4.536 145.184 5.992 145.184 7.704ZM142.376 7.704C142.376 6.664 142.064 5.776 141.44 5.04C140.832 4.304 140.088 3.936 139.208 3.936C138.328 3.936 137.576 4.304 136.952 5.04C136.344 5.776 136.04 6.664 136.04 7.704C136.04 8.744 136.344 9.632 136.952 10.368C137.576 11.104 138.328 11.472 139.208 11.472C140.088 11.472 140.832 11.104 141.44 10.368C142.064 9.632 142.376 8.744 142.376 7.704ZM154.952 6.624C154.952 7.136 154.768 7.576 154.4 7.944C154.048 8.296 153.616 8.472 153.104 8.472C152.592 8.472 152.152 8.296 151.784 7.944C151.432 7.576 151.256 7.136 151.256 6.624C151.256 6.112 151.432 5.68 151.784 5.328C152.152 4.96 152.592 4.776 153.104 4.776C153.616 4.776 154.048 4.96 154.4 5.328C154.768 5.68 154.952 6.112 154.952 6.624ZM150.464 12.408C150.464 13.176 149.984 13.56 149.024 13.56C148.08 13.56 147.608 13.176 147.608 12.408V2.376C147.608 1.608 148.08 1.224 149.024 1.224C149.984 1.224 150.464 1.608 150.464 2.376V12.408ZM165.656 17.28C165.656 17.648 165.544 17.984 165.32 18.288C165.112 18.576 164.72 18.72 164.144 18.72H157.28C156.672 18.72 156.368 18.32 156.368 17.52C156.384 16.704 156.688 16.296 157.28 16.296H162.584C162.696 16.296 162.76 16.272 162.776 16.224C162.792 16.176 162.8 16.12 162.8 16.056V14.52C161.84 14.312 161 13.88 160.28 13.224C159.24 12.264 158.72 11.128 158.72 9.816C158.72 8.488 159.24 7.352 160.28 6.408C160.36 6.344 160.448 6.272 160.544 6.192H157.976C157.384 6.192 157.08 5.792 157.064 4.992C157.064 4.176 157.368 3.768 157.976 3.768H162.8V2.256C162.8 1.488 163.272 1.104 164.216 1.104C165.176 1.104 165.656 1.488 165.656 2.256V3.768H170.264C170.888 3.768 171.192 4.176 171.176 4.992C171.176 5.792 170.872 6.192 170.264 6.192H167.696C167.792 6.272 167.88 6.344 167.96 6.408C169 7.352 169.52 8.488 169.52 9.816C169.52 11.128 169 12.264 167.96 13.224C167.288 13.832 166.52 14.248 165.656 14.472V17.28ZM175.976 20.472C175.976 21.24 175.496 21.624 174.536 21.624C173.592 21.624 173.12 21.24 173.12 20.472V2.376C173.12 1.608 173.592 1.224 174.536 1.224C175.496 1.224 175.976 1.608 175.976 2.376V20.472ZM166.712 9.696C166.712 8.992 166.456 8.4 165.944 7.92C165.448 7.424 164.848 7.176 164.144 7.176C163.424 7.176 162.816 7.424 162.32 7.92C161.824 8.4 161.576 8.992 161.576 9.696C161.576 10.4 161.824 11 162.32 11.496C162.816 11.976 163.424 12.216 164.144 12.216C164.848 12.216 165.448 11.976 165.944 11.496C166.456 11 166.712 10.4 166.712 9.696Z" fill="url(#paint1_linear_48_38)"/>
<defs>
<radialGradient id="paint0_radial_48_38" cx="0" cy="0" r="1" gradientUnits="userSpaceOnUse" gradientTransform="translate(32.9869 20.0315) rotate(-179.729) scale(30.7085 61.3849)">
<stop stop-color="#00FFF0"/>
<stop offset="0.49" stop-color="#3AFFBB"/>
<stop offset="1" stop-color="#7DFF7E"/>
</radialGradient>
<linearGradient id="paint1_linear_48_38" x1="36" y1="12.5" x2="184" y2="12.5" gradientUnits="userSpaceOnUse">
<stop stop-color="#00FFF0"/>
<stop offset="0.505" stop-color="#3AFFBB"/>
<stop offset="1" stop-color="#7DFF7E"/>
</linearGradient>
</defs>
</svg>
